{
  "version": "0.5.0",
  "modules": [
    {
      "plugin": "Fundamental",
      "model": "VCA",
      "pos": [
        585.0,
        0.0
      ],
      "params": [
        0.5,
        0.63349974155426025
      ]
    },
    {
      "plugin": "Fundamental",
      "model": "VCF",
      "pos": [
        465.0,
        0.0
      ],
      "params": [
        0.5,
        0.5,
        0.0,
        0.38099977374076843,
        0.0
      ]
    },
    {
      "plugin": "Fundamental",
      "model": "VCF",
      "pos": [
        465.0,
        380.0
      ],
      "params": [
        0.5,
        0.5,
        0.0,
        0.47999992966651917,
        0.0
      ]
    },
    {
      "plugin": "Core",
      "model": "AudioInterface",
      "pos": [
        675.0,
        0.0
      ],
      "params": [],
      "data": {
        "driver": 5,
        "device": 1,
        "sampleRate": 44100.0,
        "blockSize": 256
      }
    },
    {
      "plugin": "moDllz",
      "model": "MIDIdualCV",
      "pos": [
        0.0,
        0.0
      ],
      "params": [
        0.0,
        1.0,
        0.0
      ],
      "data": {
        "interfaceName": "Arturia KeyStep 32",
        "channel": -1
      }
    },
    {
      "plugin": "Fundamental",
      "model": "VCO",
      "pos": [
        315.0,
        0.0
      ],
      "params": [
        1.0,
        1.0,
        0.0,
        0.027000002562999725,
        0.5,
        0.1724998950958252,
        0.0
      ]
    },
    {
      "plugin": "Fundamental",
      "model": "VCO",
      "pos": [
        315.0,
        380.0
      ],
      "params": [
        1.0,
        1.0,
        0.0,
        -0.096000000834465027,
        0.58849942684173584,
        0.19499997794628143,
        0.75150001049041748
      ]
    },
    {
      "plugin": "Fundamental",
      "model": "ADSR",
      "pos": [
        195.0,
        0.0
      ],
      "params": [
        0.29899993538856506,
        0.69349998235702515,
        0.59750014543533325,
        0.67550003528594971
      ]
    },
    {
      "plugin": "Fundamental",
      "model": "ADSR",
      "pos": [
        195.0,
        380.0
      ],
      "params": [
        0.19999986886978149,
        0.75199979543685913,
        0.63350009918212891,
        0.6395002007484436
      ]
    }
  ],
  "wires": [
    {
      "outputModuleId": 0,
      "outputId": 1,
      "inputModuleId": 3,
      "inputId": 0
    },
    {
      "outputModuleId": 0,
      "outputId": 0,
      "inputModuleId": 3,
      "inputId": 1
    },
    {
      "outputModuleId": 1,
      "outputId": 0,
      "inputModuleId": 0,
      "inputId": 2
    },
    {
      "outputModuleId": 2,
      "outputId": 0,
      "inputModuleId": 0,
      "inputId": 5
    },
    {
      "outputModuleId": 4,
      "outputId": 4,
      "inputModuleId": 8,
      "inputId": 5
    },
    {
      "outputModuleId": 4,
      "outputId": 5,
      "inputModuleId": 7,
      "inputId": 5
    },
    {
      "outputModuleId": 7,
      "outputId": 0,
      "inputModuleId": 0,
      "inputId": 0
    },
    {
      "outputModuleId": 8,
      "outputId": 0,
      "inputModuleId": 0,
      "inputId": 3
    },
    {
      "outputModuleId": 5,
      "outputId": 2,
      "inputModuleId": 1,
      "inputId": 3
    },
    {
      "outputModuleId": 6,
      "outputId": 3,
      "inputModuleId": 2,
      "inputId": 3
    },
    {
      "outputModuleId": 4,
      "outputId": 1,
      "inputModuleId": 5,
      "inputId": 0
    },
    {
      "outputModuleId": 4,
      "outputId": 0,
      "inputModuleId": 6,
      "inputId": 0
    },
    {
      "outputModuleId": 4,
      "outputId": 6,
      "inputModuleId": 7,
      "inputId": 4
    },
    {
      "outputModuleId": 4,
      "outputId": 6,
      "inputModuleId": 8,
      "inputId": 4
    },
    {
      "outputModuleId": 4,
      "outputId": 3,
      "inputModuleId": 1,
      "inputId": 0
    },
    {
      "outputModuleId": 4,
      "outputId": 2,
      "inputModuleId": 2,
      "inputId": 0
    },
    {
      "outputModuleId": 6,
      "outputId": 2,
      "inputModuleId": 5,
      "inputId": 1
    },
    {
      "outputModuleId": 5,
      "outputId": 3,
      "inputModuleId": 6,
      "inputId": 1
    },
    {
      "outputModuleId": 4,
      "outputId": 8,
      "inputModuleId": 1,
      "inputId": 1
    },
    {
      "outputModuleId": 4,
      "outputId": 8,
      "inputModuleId": 6,
      "inputId": 3
    }
  ]
}